# xmcd
#
# Track frame offsets: 
#        150
#        26870
#        57380
#        81060
#        99364
#        125423
#        147852
#        170981
#        201819
#        227212
#
# Disc length: 3332 seconds
#
# Revision: 0
# Processed by: cddbd v1.5.2PL0 Copyright (c) Steve Scherf et al.
# Submitted via: ExactAudioCopy v0.99pb5
#
DISCID=8c0d020a
DTITLE=Big Mike Aguirre And The Blu-City All-Stars - Live At BB's Jazz
DTITLE=Blues And Soups
DYEAR=2010
DGENRE=Blues
TTITLE0=Goin' To The Church
TTITLE1=Killing My Love
TTITLE2=Can't Wait No Longer
TTITLE3=She Moves Me
TTITLE4=Suits Me To A Tee
TTITLE5=On The Other Hand
TTITLE6=Slow Walkin'
TTITLE7=She's A Good 'Un
TTITLE8=Be Thankful For What You Got
TTITLE9=Up On The Hill
EXTD=
EXTT0=
EXTT1=
EXTT2=
EXTT3=
EXTT4=
EXTT5=
EXTT6=
EXTT7=
EXTT8=
EXTT9=
PLAYORDER=
